<svg width="101" height="15" viewBox="0 0 101 15" fill="none" xmlns="http://www.w3.org/2000/svg">
<path d="M15.5241 5.36169L10.6214 4.65623L8.42393 0.246943C8.2598 -0.0823142 7.68634 -0.0823142 7.52221 0.246943L5.32537 4.65623L0.4227 5.36169C0.33218 5.37479 0.247242 5.41113 0.177212 5.46673C0.107182 5.52232 0.0547678 5.59502 0.0257246 5.67684C-0.00331848 5.75865 -0.00786755 5.84643 0.0125769 5.93052C0.0330214 6.01462 0.0776687 6.09178 0.141617 6.15353L3.70333 9.59258L2.86141 14.4544C2.84638 14.5414 2.85762 14.6306 2.89385 14.7118C2.93008 14.793 2.98984 14.863 3.06629 14.9137C3.14275 14.9644 3.23281 14.9939 3.32619 14.9987C3.41957 15.0035 3.5125 14.9834 3.59435 14.9408L7.9734 12.661L12.3525 14.9414C12.4343 14.984 12.5272 15.0041 12.6206 14.9993C12.714 14.9945 12.8041 14.9651 12.8805 14.9143C12.957 14.8636 13.0167 14.7936 13.053 14.7124C13.0892 14.6312 13.1004 14.542 13.0854 14.4551L12.2435 9.5932L15.8052 6.15416C15.8693 6.09242 15.9141 6.01521 15.9347 5.93103C15.9552 5.84685 15.9507 5.75895 15.9217 5.67702C15.8926 5.59509 15.8401 5.52231 15.77 5.46667C15.6998 5.41103 15.6148 5.37471 15.5241 5.36169Z" fill="#C7C7C7"/>
<path d="M36.7873 5.36169L31.8846 4.65623L29.6871 0.246943C29.523 -0.0823142 28.9495 -0.0823142 28.7854 0.246943L26.5886 4.65623L21.6859 5.36169C21.5954 5.37479 21.5104 5.41113 21.4404 5.46673C21.3704 5.52232 21.318 5.59502 21.2889 5.67684C21.2599 5.75865 21.2553 5.84643 21.2758 5.93052C21.2962 6.01462 21.3409 6.09178 21.4048 6.15353L24.9665 9.59258L24.1246 14.4544C24.1096 14.5414 24.1208 14.6306 24.157 14.7118C24.1933 14.793 24.253 14.863 24.3295 14.9137C24.4059 14.9644 24.496 14.9939 24.5894 14.9987C24.6828 15.0035 24.7757 14.9834 24.8575 14.9408L29.2366 12.661L33.6156 14.9414C33.6975 14.984 33.7904 15.0041 33.8838 14.9993C33.9772 14.9945 34.0672 14.9651 34.1437 14.9143C34.2201 14.8636 34.2799 14.7936 34.3161 14.7124C34.3524 14.6312 34.3636 14.542 34.3486 14.4551L33.5067 9.5932L37.0684 6.15416C37.1325 6.09242 37.1773 6.01521 37.1979 5.93103C37.2184 5.84685 37.2139 5.75895 37.1849 5.67702C37.1558 5.59509 37.1033 5.52231 37.0332 5.46667C36.963 5.41103 36.8779 5.37471 36.7873 5.36169Z" fill="#C7C7C7"/>
<path d="M58.0504 5.36169L53.1477 4.65623L50.9502 0.246943C50.7861 -0.0823142 50.2126 -0.0823142 50.0485 0.246943L47.8517 4.65623L42.949 5.36169C42.8585 5.37479 42.7735 5.41113 42.7035 5.46673C42.6335 5.52232 42.5811 5.59502 42.552 5.67684C42.523 5.75865 42.5184 5.84643 42.5389 5.93052C42.5593 6.01462 42.604 6.09178 42.6679 6.15353L46.2296 9.59258L45.3877 14.4544C45.3727 14.5414 45.3839 14.6306 45.4202 14.7118C45.4564 14.793 45.5161 14.863 45.5926 14.9137C45.6691 14.9644 45.7591 14.9939 45.8525 14.9987C45.9459 15.0035 46.0388 14.9834 46.1207 14.9408L50.4997 12.661L54.8788 14.9414C54.9606 14.984 55.0535 15.0041 55.1469 14.9993C55.2403 14.9945 55.3304 14.9651 55.4068 14.9143C55.4833 14.8636 55.543 14.7936 55.5793 14.7124C55.6155 14.6312 55.6267 14.542 55.6117 14.4551L54.7698 9.5932L58.3315 6.15416C58.3956 6.09242 58.4404 6.01521 58.461 5.93103C58.4815 5.84685 58.477 5.75895 58.448 5.67702C58.4189 5.59509 58.3664 5.52231 58.2963 5.46667C58.2261 5.41103 58.1411 5.37471 58.0504 5.36169Z" fill="#C7C7C7"/>
<path d="M79.3136 5.36169L74.4109 4.65623L72.2134 0.246943C72.0493 -0.0823142 71.4758 -0.0823142 71.3117 0.246943L69.1149 4.65623L64.2122 5.36169C64.1217 5.37479 64.0367 5.41113 63.9667 5.46673C63.8967 5.52232 63.8443 5.59502 63.8152 5.67684C63.7862 5.75865 63.7816 5.84643 63.8021 5.93052C63.8225 6.01462 63.8672 6.09178 63.9311 6.15353L67.4928 9.59258L66.6509 14.4544C66.6359 14.5414 66.6471 14.6306 66.6833 14.7118C66.7196 14.793 66.7793 14.863 66.8558 14.9137C66.9322 14.9644 67.0223 14.9939 67.1157 14.9987C67.2091 15.0035 67.302 14.9834 67.3838 14.9408L71.7629 12.661L76.1419 14.9414C76.2238 14.984 76.3167 15.0041 76.4101 14.9993C76.5035 14.9945 76.5935 14.9651 76.67 14.9143C76.7465 14.8636 76.8062 14.7936 76.8424 14.7124C76.8787 14.6312 76.8899 14.542 76.8749 14.4551L76.033 9.5932L79.5947 6.15416C79.6588 6.09242 79.7036 6.01521 79.7242 5.93103C79.7447 5.84685 79.7402 5.75895 79.7112 5.67702C79.6821 5.59509 79.6296 5.52231 79.5595 5.46667C79.4893 5.41103 79.4042 5.37471 79.3136 5.36169Z" fill="#C7C7C7"/>
<path d="M100.577 5.36169L95.674 4.65623L93.4765 0.246943C93.3124 -0.0823142 92.739 -0.0823142 92.5748 0.246943L90.378 4.65623L85.4753 5.36169C85.3848 5.37479 85.2999 5.41113 85.2298 5.46673C85.1598 5.52232 85.1074 5.59502 85.0783 5.67684C85.0493 5.75865 85.0447 5.84643 85.0652 5.93052C85.0856 6.01462 85.1303 6.09178 85.1942 6.15353L88.7559 9.59258L87.914 14.4544C87.899 14.5414 87.9102 14.6306 87.9465 14.7118C87.9827 14.793 88.0425 14.863 88.1189 14.9137C88.1954 14.9644 88.2854 14.9939 88.3788 14.9987C88.4722 15.0035 88.5651 14.9834 88.647 14.9408L93.026 12.661L97.4051 14.9414C97.4869 14.984 97.5798 15.0041 97.6732 14.9993C97.7666 14.9945 97.8567 14.9651 97.9331 14.9143C98.0096 14.8636 98.0693 14.7936 98.1056 14.7124C98.1418 14.6312 98.153 14.542 98.138 14.4551L97.2961 9.5932L100.858 6.15416C100.922 6.09242 100.967 6.01521 100.987 5.93103C101.008 5.84685 101.003 5.75895 100.974 5.67702C100.945 5.59509 100.893 5.52231 100.823 5.46667C100.752 5.41103 100.667 5.37471 100.577 5.36169Z" fill="#C7C7C7"/>
</svg>
